<svg xmlns="http://www.w3.org/2000/svg" viewBox="0 0 590.47 313.92"><defs><style>.cls-1{opacity:0.4;}.cls-2{fill:#7b7c7d;opacity:0.7;}.cls-3,.cls-4{font-size:96.97px;font-family:Corbel-Bold, Corbel;}.cls-3{fill:#30619b;}.cls-3,.cls-4,.cls-5{font-weight:700;}.cls-4{fill:#33629d;}.cls-5{font-size:155.81px;fill:none;stroke:#2f609a;stroke-miterlimit:10;stroke-width:4px;font-family:CenturyGothicPro-Bold, Century Gothic Pro;}</style></defs><title>Auftragsdepot24_Logo_final</title><g id="Zahnrad" class="cls-1"><path class="cls-2" d="M720.89,252.52l31.33-7.59-.58-33.16-32.78-8.38c-6.12-24.75-9.93-29.25-9.93-29.25l14.93-26.43L701.11,125,673.49,141c-7-5.94-28.25-11.32-28.25-11.32l-7.69-31.18H605l-7.94,30.43a93.91,93.91,0,0,0-28.44,11.69l-28.75-15.25-21.25,23.5,15.82,27.5a78.22,78.22,0,0,0-11.32,28.75L491.61,212v33.18l31.63,8.13c1.12,9.44,10.87,28.69,10.87,28.69l-15.62,27.12,23.19,23.19,27.75-16a87.16,87.16,0,0,0,27.18,9.5l9.5,32.44h31.75L645.05,326s16.81-2.19,28.69-10.5l27.44,16.87,23.68-24.06L708.43,280C718.39,267.64,720.89,252.52,720.89,252.52Zm-99,67.29a91.7,91.7,0,1,1,91.7-91.7A91.7,91.7,0,0,1,621.92,319.81Z" transform="translate(-161.75 -98.46)"/><path class="cls-2" d="M486.76,359.65l25.5,4.28,10-24.66-21.55-16.5c3.28-20.19,1.88-24.71,1.88-24.71L522,283.26l-9.64-23.9-25.4,3.06c-3.3-6.59-17.28-17.25-17.28-17.25l4.15-25.43-24-10.25-15.44,20a75.27,75.27,0,0,0-24.66-.34l-16.41-20.3-23.08,10.65,3,25.26a62.62,62.62,0,0,0-17.4,17.65l-25.41-4.84L319.92,282l20.77,16c-2.14,7.31-1,24.59-1,24.59l-20.07,15.09,9.81,24.41L354.93,359A69.78,69.78,0,0,0,372,374.56l-3.21,26.93,23.43,10L407.66,390s13.09,3.68,24.47,1.29l14.93,21.09,25.06-10.29L468.92,376C480.15,370,486.76,359.65,486.76,359.65Zm-94.21,18.48a73.56,73.56,0,1,1,96.53-38.78A73.55,73.55,0,0,1,392.55,378.13Z" transform="translate(-161.75 -98.46)"/></g><g id="Aufrags_Depot_24" data-name="Aufrags Depot 24"><text class="cls-3" transform="translate(0 150.44)">Auftrags</text><text class="cls-4" transform="translate(183.66 255.02)">Depot</text><text class="cls-5" transform="translate(373.2 185.89)">24</text></g></svg>