<svg width="110" height="86" viewBox="0 0 110 86" fill="none" xmlns="http://www.w3.org/2000/svg">
<path d="M83.3923 32.1773H57.4326V41.4408C57.4326 44.7493 56.2371 47.5614 53.846 49.8773C51.455 52.1932 48.5516 53.3511 45.1359 53.3511C41.7201 53.3511 38.8167 52.1932 36.4257 49.8773C34.0346 47.5614 32.8391 44.7493 32.8391 41.4408V21.2596L21.7379 27.711C20.1439 28.7035 18.8345 30.0268 17.8098 31.6811C16.8989 33.225 16.4435 34.9343 16.4435 36.8091V44.5838L2.78046 52.3586C1.52801 53.0203 0.674074 54.0679 0.218639 55.5016C-0.122936 56.9352 0.0478516 58.2586 0.731003 59.4717L14.394 82.4651C15.191 83.6782 16.3296 84.4501 17.8098 84.781C19.29 85.2221 20.6563 85.1118 21.9087 84.4501L39.4999 74.5249H62.8978C65.8581 74.5249 68.4199 73.4772 70.5833 71.3819C72.7466 69.2866 73.8282 66.8053 73.8282 63.938H76.5608C78.041 63.938 79.2934 63.4417 80.3182 62.4492C81.4567 61.3464 82.026 60.0782 82.026 58.6446V48.0577H83.3923C84.5309 48.0577 85.4987 47.6717 86.2957 46.8997C87.0927 46.1278 87.4912 45.1904 87.4912 44.0876V36.1474C87.4912 35.0446 87.0927 34.1072 86.2957 33.3353C85.4987 32.5633 84.5309 32.1773 83.3923 32.1773ZM108.669 26.0568L95.0059 3.06334C94.2089 1.85026 93.0703 1.0783 91.5902 0.747461C90.11 0.30634 88.7437 0.41662 87.4912 1.0783L69.9001 11.0035H52.3089C50.2595 11.0035 48.3239 11.5549 46.5022 12.6577L40.8662 16.1315C39.1583 17.1241 38.3043 18.6129 38.3043 20.5979V41.4408C38.3043 43.3156 38.9306 44.9147 40.183 46.238C41.5493 47.4511 43.2003 48.0577 45.1359 48.0577C47.0714 48.0577 48.6655 47.4511 49.9179 46.238C51.2842 44.9147 51.9674 43.3156 51.9674 41.4408V26.8839H83.3923C86.0111 26.8839 88.2313 27.8212 90.0531 29.696C91.9887 31.4605 92.9565 33.611 92.9565 36.1474V40.7792L106.619 33.1698C107.872 32.5082 108.669 31.4605 109.011 30.0268C109.466 28.5932 109.352 27.2698 108.669 26.0568Z" fill="white"/>
</svg>
