<svg width="779" height="679" viewBox="0 0 779 679" fill="none" xmlns="http://www.w3.org/2000/svg">
<path d="M526.868 164.377C526.886 164.659 526.785 164.949 526.588 165.152L123.399 580.338C123.285 580.455 123.203 580.593 123.158 580.749C111.204 621.899 112.793 697.669 214.293 673.68C214.476 673.637 214.653 673.54 214.785 673.406L620.034 260.446C620.252 260.224 620.549 260.115 620.858 260.152C679.487 267.157 791.751 245.194 777.813 102.001C777.732 101.167 776.716 100.754 776.12 101.342L711.911 164.662C711.797 164.774 711.661 164.857 711.507 164.904C673.957 176.357 603.578 173.725 620.322 72.0864C620.358 71.8677 620.468 71.6561 620.63 71.5056L689.049 8.12339C689.649 7.56771 689.395 6.57421 688.59 6.42721C629.33 -4.40309 517.033 12.2958 526.868 164.377Z" fill="#E1E1E1" fill-opacity="0.2"/>
<path d="M385.996 276.714C386.374 277.103 386.372 277.723 385.992 278.11L330.018 335.149C329.629 335.546 328.99 335.549 328.597 335.156L214.648 221.188C214.605 221.145 214.56 221.107 214.51 221.073C190.449 204.524 142.096 189.209 140.232 259.71C140.226 259.949 140.135 260.192 139.974 260.369L92.0692 313.431C91.6831 313.858 91.0166 313.872 90.6132 313.461L0.68733 221.824C0.305648 221.435 0.305652 220.812 0.687333 220.423L42.165 178.157C42.3721 177.945 42.6526 177.836 42.9476 177.858C70.5868 179.871 121.544 169.783 108.484 113.427C108.406 113.092 108.5 112.724 108.741 112.479L189.088 30.6026C216.609 7.5915 290.539 -24.5913 366.736 30.0132C367.182 30.3332 367.296 30.9635 366.977 31.4107L351.018 53.7711C350.748 54.1497 350.271 54.2986 349.839 54.1261C323.303 43.5287 260.532 38.1334 215.095 99.1923C214.803 99.584 214.832 100.14 215.172 100.49L385.996 276.714Z" fill="#E1E1E1" fill-opacity="0.2"/>
<path d="M513.438 401.46C513.836 401.102 514.446 401.121 514.821 401.503L690.293 580.314C690.422 580.446 690.512 580.606 690.553 580.786C698.257 614.724 694.973 675.152 620.597 647.712C620.459 647.661 620.326 647.577 620.223 647.472L442.646 466.516C442.247 466.109 442.268 465.453 442.691 465.072L513.438 401.46Z" fill="#E1E1E1" fill-opacity="0.2"/>
</svg>
